<?xml version="1.0" encoding="utf-8"?>
<!-- Generator: Adobe Illustrator 18.1.1, SVG Export Plug-In . SVG Version: 6.00 Build 0)  -->
<svg version="1.1" xmlns="http://www.w3.org/2000/svg" xmlns:xlink="http://www.w3.org/1999/xlink" x="0px" y="0px"
	 viewBox="0 0 2000 2000" enable-background="new 0 0 2000 2000" xml:space="preserve">
<g id="Capa_1">
</g>
<g id="Layer_2">
	<g>
		<path d="M1951.1,22.1c-0.4-0.3-0.9-0.6-1.3-1c-19-13.3-42.1-21.1-67-21.1H789c-23.3,0-45.1,6.9-63.4,18.7
			c-1.5,0.9-2.9,1.8-4.2,2.8c-30,21.3-49.6,56.2-49.6,95.7v609.4c0,64.6,52.6,117.2,117.2,117.2H1078c0.7,0,1.4,0,2.1-0.1L1510,844
			v-0.2h372.8c64.6,0,117.2-52.6,117.2-117.2V117.2C2000,78.1,1980.7,43.4,1951.1,22.1z M1825.6,78.1l-489.7,352.3L847.8,78.1
			H1825.6z M750.8,734.9c-0.6-2.7-0.9-5.4-0.9-8.3V117.2c0-4.2,0.7-8.2,1.9-12l332.5,240L750.8,734.9z M1445.3,765.7
			c-1.5,0-3,0.1-4.4,0.3l-164.7-0.1c-0.9-0.1-1.9-0.1-2.8-0.1c-0.9,0-1.8,0-2.8,0.1l-227.2-0.2l0,0.1H827.3l320.6-374.6L1313,510.2
			c6.8,4.9,14.8,7.4,22.9,7.4c8,0,16-2.5,22.8-7.4l165.4-119l320.4,374.4H1445.3z M1921.9,726.6L1921.9,726.6c0,2.8-0.3,5.6-0.9,8.3
			l-333.3-389.4l332.6-239.3c1,3.5,1.6,7.1,1.6,10.9V726.6z"/>
		<path d="M1750,1707.5c-5.9,0-11.4,1.3-16.4,3.6h-19.1c-21.6,0-39.1,17.5-39.1,39.1c0,21.6,17.5,39.1,39.1,39.1h35.5
			c21.6,0,39.1-17.5,39.1-39.1v-3.6C1789,1725,1771.6,1707.5,1750,1707.5z"/>
		<path d="M1710.9,1590.3c0,21.6,17.5,39.1,39.1,39.1c21.6,0,39.1-17.5,39.1-39.1v-39.1c0-21.6-17.5-39.1-39.1-39.1
			c-21.6,0-39.1,17.5-39.1,39.1V1590.3z"/>
		<path d="M1558.2,1711.1h-39.1c-21.6,0-39.1,17.5-39.1,39.1c0,21.6,17.5,39.1,39.1,39.1h39.1c21.6,0,39.1-17.5,39.1-39.1
			C1597.3,1728.6,1579.8,1711.1,1558.2,1711.1z"/>
		<path d="M1789,1004.3v-39.1c0-21.6-17.5-39.1-39.1-39.1c-21.6,0-39.1,17.5-39.1,39.1v39.1c0,21.6,17.5,39.1,39.1,39.1
			C1771.6,1043.4,1789,1025.9,1789,1004.3z"/>
		<path d="M1710.9,1199.6c0,21.6,17.5,39.1,39.1,39.1c21.6,0,39.1-17.5,39.1-39.1v-39.1c0-21.6-17.5-39.1-39.1-39.1
			c-21.6,0-39.1,17.5-39.1,39.1V1199.6z"/>
		<path d="M1710.9,1395c0,21.6,17.5,39.1,39.1,39.1c21.6,0,39.1-17.5,39.1-39.1v-39.1c0-21.6-17.5-39.1-39.1-39.1
			c-21.6,0-39.1,17.5-39.1,39.1V1395z"/>
		<path d="M249.8,289.1h39.1c21.6,0,39.1-17.5,39.1-39.1c0-21.6-17.5-39.1-39.1-39.1h-39.1c-21.6,0-39.1,17.5-39.1,39.1
			S228.3,289.1,249.8,289.1z"/>
		<path d="M445.2,289.1h39.1c21.6,0,39.1-17.5,39.1-39.1S505.8,211,484.2,211h-39.1c-21.6,0-39.1,17.5-39.1,39.1
			S423.6,289.1,445.2,289.1z"/>
		<path d="M249.8,484.4c21.6,0,39.1-17.5,39.1-39.1v-39.1c0-21.6-17.5-39.1-39.1-39.1s-39.1,17.5-39.1,39.1v39.1
			C210.8,466.9,228.3,484.4,249.8,484.4z"/>
		<path d="M249.8,679.8c21.6,0,39.1-17.5,39.1-39.1v-39.1c0-21.6-17.5-39.1-39.1-39.1s-39.1,17.5-39.1,39.1v39.1
			C210.8,662.3,228.3,679.8,249.8,679.8z"/>
		<path d="M1010.2,1418.9c-59.1-59.1-155.2-59.1-214.3,0l-13.4,13.4c-18.6,18.6-48.9,18.6-67.6,0l-147.2-147.2c-9-9-14-21-14-33.8
			c0-12.8,5-24.8,14-33.8l13.4-13.4c59.1-59.1,59.1-155.2,0-214.3L375.2,784c-59.1-59.1-155.2-59.1-214.3,0l-49.3,49.3
			c-149,149-149,391.4,0,540.3L246,1507.9c0.8,0.8,1.6,1.5,2.4,2.2l126.1,126.1c0.7,0.9,1.5,1.7,2.3,2.5c0.8,0.8,1.6,1.5,2.5,2.2
			l143.8,143.8c0.7,0.8,1.4,1.6,2.1,2.3l101.2,101.2c74.5,74.5,172.3,111.7,270.2,111.7s195.7-37.2,270.2-111.7l49.2-49.3
			c28.6-28.6,44.4-66.7,44.4-107.1s-15.8-78.5-44.4-107.1L1010.2,1418.9z M1160.7,1783.8l-28,28l-187.3-187.3
			c-15.3-15.3-40-15.3-55.3,0c-15.3,15.3-15.3,40,0,55.3l184.6,184.6c-118.8,86.1-286.2,75.7-393.2-31.3l-101.2-101.2
			c-0.6-0.6-1.2-1.2-1.9-1.7l-144.9-144.9c-0.5-0.6-1.1-1.2-1.7-1.8c-0.6-0.6-1.2-1.1-1.8-1.7L303,1454.5c-0.6-0.6-1.1-1.3-1.7-1.9
			L167,1318.3C48.5,1199.8,48.5,1007,167,888.5l49.3-49.3c28.6-28.6,75.2-28.6,103.8,0l205.8,205.8c28.6,28.6,28.6,75.2,0,103.8
			l-13.4,13.4c-4.9,4.9-9.4,10.2-13.4,15.8l-162.6-162.6c-15.3-15.3-40-15.3-55.2,0c-15.3,15.3-15.3,40,0,55.3l195.2,195.2
			c3.2,28.1,15.7,54.2,36,74.5l147.2,147.2c49.1,49.1,129,49.1,178.1,0l13.4-13.4c28.6-28.6,75.2-28.6,103.8,0l205.8,205.8
			c13.9,13.9,21.5,32.3,21.5,51.9S1174.6,1769.9,1160.7,1783.8z"/>
	</g>
</g>
</svg>
