<?xml version="1.0" encoding="utf-8"?>
<!-- Generator: Adobe Illustrator 23.0.2, SVG Export Plug-In . SVG Version: 6.00 Build 0)  -->
<svg version="1.1" id="шершавая_copy" xmlns="http://www.w3.org/2000/svg" xmlns:xlink="http://www.w3.org/1999/xlink"
	 x="0px" y="0px" viewBox="0 0 38 14" style="enable-background:new 0 0 38 14;" xml:space="preserve">
<path d="M28.6,2.2h-1.4l-2-2l-2.1,2l-2.1-2l-2.1,2l-2.1-2l-2.1,2l-2.2-2l-1.9,2H9.3C9,2.2,8.8,2.4,8.6,2.6L7.5,4.3
	C7.4,4.5,7.3,4.6,7.3,4.8V13c0,0.4,0.3,0.8,0.8,0.8h21.7c0.4,0,0.8-0.3,0.8-0.8V4.8c0-0.2,0-0.3-0.1-0.5l-1.1-1.7
	C29.2,2.4,28.9,2.2,28.6,2.2z"/>
<path d="M37.6,2.2h-4.2c-0.3,0-0.5,0.1-0.7,0.4l-1.1,1.7c-0.1,0.1-0.1,0.3-0.1,0.5V13c0,0.4,0.3,0.8,0.8,0.8h5.4V2.2z"/>
<path d="M0.4,2.2h4.2c0.3,0,0.5,0.1,0.7,0.4l1.1,1.7c0.1,0.1,0.1,0.3,0.1,0.5V13c0,0.4-0.3,0.8-0.8,0.8H0.4V2.2z"/>
</svg>
