<?xml version="1.0" encoding="utf-8"?>
<!-- Generator: Adobe Illustrator 23.0.2, SVG Export Plug-In . SVG Version: 6.00 Build 0)  -->
<svg version="1.1" id="гладкая" xmlns="http://www.w3.org/2000/svg" xmlns:xlink="http://www.w3.org/1999/xlink" x="0px"
	 y="0px" viewBox="0 0 38 12" style="enable-background:new 0 0 38 12;" xml:space="preserve">
<path d="M28.6,0.2H9.3C9,0.2,8.8,0.4,8.6,0.6L7.5,2.3C7.4,2.5,7.3,2.6,7.3,2.8V11c0,0.4,0.3,0.8,0.8,0.8h21.7c0.4,0,0.8-0.3,0.8-0.8
	V2.8c0-0.2,0-0.3-0.1-0.5l-1.1-1.7C29.2,0.4,28.9,0.2,28.6,0.2z"/>
<path d="M37.6,0.2h-4.2c-0.3,0-0.5,0.1-0.7,0.4l-1.1,1.7c-0.1,0.1-0.1,0.3-0.1,0.5V11c0,0.4,0.3,0.8,0.8,0.8h5.4V0.2z"/>
<path d="M0.4,0.2h4.2c0.3,0,0.5,0.1,0.7,0.4l1.1,1.7c0.1,0.1,0.1,0.3,0.1,0.5V11c0,0.4-0.3,0.8-0.8,0.8H0.4V0.2z"/>
</svg>
