<?xml version="1.0" encoding="utf-8"?>
<!-- Generator: Adobe Illustrator 23.0.2, SVG Export Plug-In . SVG Version: 6.00 Build 0)  -->
<svg version="1.1" id="частичный" xmlns="http://www.w3.org/2000/svg" xmlns:xlink="http://www.w3.org/1999/xlink" x="0px"
	 y="0px" viewBox="0 0 38 12" style="enable-background:new 0 0 38 12;" xml:space="preserve">
<path d="M30.5,2.3l-1.1-1.7c-0.2-0.2-0.4-0.4-0.7-0.4H9.3C9,0.2,8.8,0.4,8.6,0.6L7.5,2.3C7.4,2.5,7.3,2.6,7.3,2.8V11
	c0,0.4,0.3,0.8,0.8,0.8h21.7c0.4,0,0.8-0.3,0.8-0.8V2.8C30.6,2.6,30.5,2.5,30.5,2.3z M29.2,10.2c0,0.2-0.2,0.4-0.4,0.4H8.9
	c-0.2,0-0.4-0.2-0.4-0.4V4.4C8.5,4.2,8.7,4,8.9,4h19.9c0.2,0,0.4,0.2,0.4,0.4V10.2z"/>
<path d="M32.9,10.6c-0.2,0-0.4-0.2-0.4-0.4V4.4c0-0.2,0.2-0.4,0.4-0.4h4.7V0.2h-4.2c-0.3,0-0.5,0.1-0.7,0.4l-1.1,1.7
	c-0.1,0.1-0.1,0.3-0.1,0.5V11c0,0.4,0.3,0.8,0.8,0.8h5.4v-1.2H32.9z"/>
<path d="M6.4,2.3L5.3,0.6C5.1,0.4,4.9,0.2,4.6,0.2H0.4V4H5c0.2,0,0.4,0.2,0.4,0.4v5.8c0,0.2-0.2,0.4-0.4,0.4H0.4v1.2h5.4
	c0.4,0,0.8-0.3,0.8-0.8V2.8C6.6,2.6,6.5,2.5,6.4,2.3z"/>
</svg>
